<svg xmlns="http://www.w3.org/2000/svg" width="11.07pc" height="2.35pc" viewBox="0 0 132.86 28.16"><rect width="42" height="27" fill="#e31936"/><path d="M20.6,14.15h2.8s0-1.89,0-2.63-.48-2.72-3.72-2.7a3.63,3.63,0,0,0-3.87,3.61c0,1,0,6.82,0,8.22s1,3.32,3.83,3.33,3.74-1.59,3.77-2.79c0-1.36,0-2.53,0-2.53h-2.8s0,1.34,0,2c0,.5-.26,1.2-1,1.13-.85-.08-.86-.69-.86-1.63s0-6.78,0-7.66S19,11,19.7,11s.9.51.9,1.54S20.6,14.15,20.6,14.15Z" transform="translate(-2.75 -2.89)" fill="#fff"/><path d="M32.06,14s0-1.08,0-2.36-.48-2.78-3.39-2.77-3.6,1.62-3.71,3.09a7.51,7.51,0,0,0,.14,2.53A3.9,3.9,0,0,0,26.28,16c.86.79,2.19,1.85,2.7,2.47a3,3,0,0,1,.43,1.8,3,3,0,0,1-.21,1.33.81.81,0,0,1-.76.25c-.46,0-.83-.1-.83-1.1s0-2,0-2h-2.8s0,2.09,0,2.64a3,3,0,0,0,.84,1.89,3.72,3.72,0,0,0,2.67.76,3.84,3.84,0,0,0,3-1c.51-.56.83-1.37.83-3.1a4.29,4.29,0,0,0-1.57-3.73c-1.25-1.21-2.47-2-2.75-2.71a4.59,4.59,0,0,1-.12-1.81.63.63,0,0,1,.71-.65c.43,0,.68.11.82.53A16.74,16.74,0,0,1,29.37,14Z" transform="translate(-2.75 -2.89)" fill="#fff"/><path d="M41.55,9V23.8H38.92V22s-.25,2.15-3,2-2.3-3.32-2.29-4.39c0-.64,0-10.57,0-10.57h3V20.51a1.82,1.82,0,0,0,.18.81.8.8,0,0,0,.74.32,1,1,0,0,0,.81-.38,1.92,1.92,0,0,0,.25-1V9Z" transform="translate(-2.75 -2.89)" fill="#fff"/><path d="M56.58,5.26V6.94H54.22v8.43H52.11V6.94H49.76V5.26Z" transform="translate(-2.75 -2.89)" fill="#231f20"/><path d="M60.62,15.37V10.5c0-.63-.11-1.12-.74-1.12s-.74.49-.74,1.12v4.87h-2V5.26h2V9h0a1.75,1.75,0,0,1,1.66-.86A1.61,1.61,0,0,1,62.6,9.7v5.67Z" transform="translate(-2.75 -2.89)" fill="#231f20"/><path d="M65.42,12.15c0,.84,0,2.1.9,2.1.7,0,.84-.67.84-1.26h2a2.57,2.57,0,0,1-.75,1.84,3,3,0,0,1-2.09.68c-2.55,0-2.88-1.55-2.88-3.76,0-1.94.28-3.59,2.88-3.59s3,1.72,2.88,4ZM67.23,11c0-.68,0-1.66-.91-1.66s-.9,1.06-.9,1.66Z" transform="translate(-2.75 -2.89)" fill="#231f20"/><path d="M73,10.32C73,7.64,73,5.1,76.5,5.1c2.15,0,3,1.19,2.94,3.35H77.37c0-1.34-.24-1.84-.87-1.84-1.19,0-1.35,1.12-1.35,3.71S75.31,14,76.5,14c1,0,.93-1.26,1-2.06h2.09c0,2.7-1.08,3.57-3,3.57C73,15.54,73,13,73,10.32Z" transform="translate(-2.75 -2.89)" fill="#231f20"/><path d="M85.81,14.06a11.55,11.55,0,0,0,.1,1.31H84.07L84,14.43h0a2,2,0,0,1-1.85,1.08c-1.37,0-1.87-1-1.87-2.25,0-2.34,1.8-2.44,3.63-2.41V10.3c0-.6-.08-1-.79-1s-.75.52-.75,1.08H80.4a2,2,0,0,1,.73-1.73A3.12,3.12,0,0,1,83,8.16c2.51,0,2.83,1.08,2.83,2.37Zm-3.64-.89c0,.51.08,1.12.72,1.12,1.17,0,1-1.57,1-2.34C82.89,12,82.17,11.91,82.17,13.17Z" transform="translate(-2.75 -2.89)" fill="#231f20"/><path d="M89,5.26V15.37h-2V5.26Z" transform="translate(-2.75 -2.89)" fill="#231f20"/><path d="M92.36,5.26V6.82h-2V5.26Zm0,10.11h-2V8.3h2Z" transform="translate(-2.75 -2.89)" fill="#231f20"/><path d="M97,6.48c-.8-.05-1,.25-1,1V8.3H97V9.52H96v5.85h-2V9.52h-.89V8.3h.9c0-2-.18-3.11,2.23-3.11l.7,0Z" transform="translate(-2.75 -2.89)" fill="#231f20"/><path d="M97.34,11.75c0-1.94.28-3.59,2.89-3.59s2.88,1.65,2.88,3.59c0,2.21-.34,3.76-2.88,3.76S97.34,14,97.34,11.75Zm3.8-.12c0-1.47-.07-2.21-.91-2.21s-.91.74-.91,2.21c0,2.16.18,2.62.91,2.62S101.14,13.79,101.14,11.63Z" transform="translate(-2.75 -2.89)" fill="#231f20"/><path d="M106,8.3v.91h0a1.8,1.8,0,0,1,1.84-1.05V9.93c-1.74-.12-1.77.89-1.77,1.59v3.85h-2V8.3Z" transform="translate(-2.75 -2.89)" fill="#231f20"/><path d="M110.5,9h0a1.76,1.76,0,0,1,1.67-.86A1.6,1.6,0,0,1,114,9.7v5.67h-2V10.5c0-.63-.12-1.12-.75-1.12s-.74.49-.74,1.12v4.87h-2V8.3h2Z" transform="translate(-2.75 -2.89)" fill="#231f20"/><path d="M117.25,5.26V6.82h-2V5.26Zm0,10.11h-2V8.3h2Z" transform="translate(-2.75 -2.89)" fill="#231f20"/><path d="M123.94,14.06c0,.43.06.88.1,1.31h-1.83l-.09-.94h0a2,2,0,0,1-1.84,1.08c-1.38,0-1.88-1-1.88-2.25,0-2.34,1.81-2.44,3.64-2.41V10.3c0-.6-.08-1-.8-1s-.74.52-.74,1.08h-1.93a1.93,1.93,0,0,1,.73-1.73,3.09,3.09,0,0,1,1.84-.46c2.51,0,2.83,1.08,2.83,2.37Zm-3.64-.89c0,.51.09,1.12.73,1.12,1.16,0,1-1.57,1-2.34C121,12,120.3,11.91,120.3,13.17Z" transform="translate(-2.75 -2.89)" fill="#231f20"/><path d="M53.3,28.54c-2.62,0-3.11-1.54-3-3.29h2.12c0,1,0,1.78,1.2,1.78a1,1,0,0,0,1.07-1.15c0-1.82-4.26-1.93-4.26-4.94,0-1.59.76-2.84,3.33-2.84,2.06,0,3.08.92,2.94,3H54.64c0-.75-.12-1.52-1-1.52a1,1,0,0,0-1.09,1.07c0,1.92,4.26,1.75,4.26,4.93C56.83,28.23,54.91,28.54,53.3,28.54Z" transform="translate(-2.75 -2.89)" fill="#231f20"/><path d="M57.15,21.3H58V20.18l2-.88v2h1v1.22h-1V26.3c0,.53,0,.88.63.88a1.27,1.27,0,0,0,.35,0v1.22a7.56,7.56,0,0,1-1,.07c-1.71,0-1.93-1.13-1.93-1.57V22.52h-.8Z" transform="translate(-2.75 -2.89)" fill="#231f20"/><path d="M67.06,27.06c0,.43.06.88.1,1.31H65.33l-.09-.94h0a2,2,0,0,1-1.84,1.08c-1.38,0-1.88-1-1.88-2.25,0-2.34,1.81-2.44,3.64-2.41V23.3c0-.6-.08-1-.8-1s-.74.52-.74,1.08H61.66a1.93,1.93,0,0,1,.73-1.73,3.09,3.09,0,0,1,1.84-.46c2.51,0,2.83,1.08,2.83,2.37Zm-3.64-.89c0,.51.09,1.12.73,1.12,1.16,0,1-1.57,1-2.34C64.15,25,63.42,24.91,63.42,26.17Z" transform="translate(-2.75 -2.89)" fill="#231f20"/><path d="M67.61,21.3h.8V20.18l2-.88v2h1v1.22h-1V26.3c0,.53,0,.88.63.88a1.27,1.27,0,0,0,.35,0v1.22a7.83,7.83,0,0,1-1,.07c-1.71,0-1.93-1.13-1.93-1.57V22.52h-.8Z" transform="translate(-2.75 -2.89)" fill="#231f20"/><path d="M73.82,25.15c0,.84,0,2.1.9,2.1.7,0,.84-.67.84-1.26h2a2.57,2.57,0,0,1-.75,1.84,3,3,0,0,1-2.09.68c-2.55,0-2.88-1.55-2.88-3.76,0-1.94.28-3.59,2.88-3.59s3,1.72,2.88,4ZM75.63,24c0-.68,0-1.66-.91-1.66s-.9,1.06-.9,1.66Z" transform="translate(-2.75 -2.89)" fill="#231f20"/><path d="M88.75,18.26v7.17c0,1.51-.86,3.11-3.43,3.11-2.33,0-3.45-1.21-3.45-3.11V18.26H84v7c0,1.25.53,1.74,1.3,1.74s1.34-.62,1.34-1.74v-7Z" transform="translate(-2.75 -2.89)" fill="#231f20"/><path d="M92,22h0a1.77,1.77,0,0,1,1.67-.86,1.6,1.6,0,0,1,1.76,1.54v5.67h-2V23.5c0-.63-.11-1.12-.74-1.12S92,22.87,92,23.5v4.87H90V21.3h2Z" transform="translate(-2.75 -2.89)" fill="#231f20"/><path d="M98.81,18.26v1.56h-2V18.26Zm0,10.11h-2V21.3h2Z" transform="translate(-2.75 -2.89)" fill="#231f20"/><path d="M99.54,21.3h2l1,5.31h0l1-5.31h1.93l-1.94,7.07h-2.17Z" transform="translate(-2.75 -2.89)" fill="#231f20"/><path d="M107.9,25.15c0,.84,0,2.1.89,2.1.7,0,.84-.67.84-1.26h2a2.53,2.53,0,0,1-.76,1.84,3,3,0,0,1-2.09.68c-2.54,0-2.88-1.55-2.88-3.76,0-1.94.28-3.59,2.88-3.59s3,1.72,2.89,4ZM109.7,24c0-.68,0-1.66-.91-1.66s-.89,1.06-.89,1.66Z" transform="translate(-2.75 -2.89)" fill="#231f20"/><path d="M114.6,21.3v.91h0a1.8,1.8,0,0,1,1.84-1.05v1.77c-1.74-.12-1.77.89-1.77,1.59v3.85h-2V21.3Z" transform="translate(-2.75 -2.89)" fill="#231f20"/><path d="M118.64,26.1a2.09,2.09,0,0,0,.09.86c.12.22.33.33.72.33a.69.69,0,0,0,.73-.73c0-1.49-3.48-1.16-3.48-3.41,0-1.53,1.52-2,2.79-2s2.56.65,2.45,2.17H120c0-.49-.06-.78-.2-.91a.63.63,0,0,0-.5-.15c-.44,0-.67.28-.67.75,0,1.12,3.47,1.07,3.47,3.33,0,1.24-1,2.16-2.65,2.16s-2.87-.43-2.76-2.41Z" transform="translate(-2.75 -2.89)" fill="#231f20"/><path d="M125,18.26v1.56h-2V18.26Zm0,10.11h-2V21.3h2Z" transform="translate(-2.75 -2.89)" fill="#231f20"/><path d="M125.69,21.3h.8V20.18l2-.88v2h1v1.22h-1V26.3c0,.53,0,.88.63.88a1.23,1.23,0,0,0,.35,0v1.22a7.56,7.56,0,0,1-1,.07c-1.71,0-1.93-1.13-1.93-1.57V22.52h-.8Z" transform="translate(-2.75 -2.89)" fill="#231f20"/><path d="M131.57,28.43l-1.92-7.13h2l1,5h0l1.06-5h1.91L132.89,31h-2.07Z" transform="translate(-2.75 -2.89)" fill="#231f20"/></svg>